<?xml version="1.0" standalone="no"?>
<!DOCTYPE svg PUBLIC "-//W3C//DTD SVG August 1999//EN"
"http://www.w3.org/Graphics/SVG/SVG-19990812.dtd">
<svg
   id="svg1"
   xmlns:sodipodi="http://sodipodi.sourceforge.net/DTD/sodipodi-0.dtd"
   xmlns="http://www.w3.org/Graphics/SVG/SVG-19991203.dtd"
   sodipodi:docname="/home/christa/asm/memory.svg"
   style="fill:#000000;fill-opacity:50%;stroke:none"
   sodipodi:docbase="/home/christa/asm/"
   height="793.700787"
   width="1417.322835">  <sodipodi:namedview
     id="base">
  </sodipodi:namedview>
  <g
     id="g27"
     transform="matrix(1 0 0 1 -100.185 17.1047)">    <g
       id="g15">      <rect
         id="rect7"
         style="stroke:#000000; fill-opacity:0%; fill:#000000; stroke-width:2; stroke-linejoin:miter; stroke-linecap:butt; stroke-opacity:100%; "
         y="455.835951"
         x="385.602233"
         height="85.523699"
         width="85.523699"
         transform="matrix(1 0 0 1 -232.135 -193.039)">
      </rect>
      <rect
         id="rect8"
         style="stroke:#000000; fill-opacity:0%; fill:#000000; stroke-width:2; stroke-linejoin:miter; stroke-linecap:butt; stroke-opacity:100%; "
         y="455.835951"
         x="385.602233"
         height="85.523699"
         width="85.523699"
         transform="matrix(1 0 0 1 -146.611 -193.039)">
      </rect>
      <rect
         id="rect9"
         style="stroke:#000000; fill-opacity:0%; fill:#000000; stroke-width:2; stroke-linejoin:miter; stroke-linecap:butt; stroke-opacity:100%; "
         y="455.835951"
         x="385.602233"
         height="85.523699"
         width="85.523699"
         transform="matrix(1 0 0 1 -61.0873 -193.039)">
      </rect>
      <rect
         id="rect10"
         style="stroke:#000000; fill-opacity:0%; fill:#000000; stroke-width:2; stroke-linejoin:miter; stroke-linecap:butt; stroke-opacity:100%; "
         y="455.835951"
         x="385.602233"
         height="85.523699"
         width="85.523699"
         transform="matrix(1 0 0 1 24.4364 -193.039)">
      </rect>
      <rect
         id="rect11"
         style="stroke:#000000; fill-opacity:0%; fill:#000000; stroke-width:2; stroke-linejoin:miter; stroke-linecap:butt; stroke-opacity:100%; "
         y="455.835951"
         x="385.602233"
         height="85.523699"
         width="85.523699"
         transform="matrix(1 0 0 1 109.96 -193.039)">
      </rect>

    </g>
    <g
       id="g21"
       style="stroke:none; fill-opacity:50%; fill:#000000; "
       transform="matrix(1 0 0 1 427.618 0)">      <rect
         id="rect22"
         style="stroke:#000000; fill-opacity:0%; fill:#000000; stroke-width:2; stroke-linejoin:miter; stroke-linecap:butt; stroke-opacity:100%; "
         y="455.835951"
         x="385.602233"
         height="85.523699"
         width="85.523699"
         transform="matrix(1 0 0 1 -232.135 -193.039)">
      </rect>
      <rect
         id="rect23"
         style="stroke:#000000; fill-opacity:0%; fill:#000000; stroke-width:2; stroke-linejoin:miter; stroke-linecap:butt; stroke-opacity:100%; "
         y="455.835951"
         x="385.602233"
         height="85.523699"
         width="85.523699"
         transform="matrix(1 0 0 1 -146.611 -193.039)">
      </rect>
      <rect
         id="rect24"
         style="stroke:#000000; fill-opacity:0%; fill:#000000; stroke-width:2; stroke-linejoin:miter; stroke-linecap:butt; stroke-opacity:100%; "
         y="455.835951"
         x="385.602233"
         height="85.523699"
         width="85.523699"
         transform="matrix(1 0 0 1 -61.0873 -193.039)">
      </rect>
      <rect
         id="rect25"
         style="stroke:#000000; fill-opacity:0%; fill:#000000; stroke-width:2; stroke-linejoin:miter; stroke-linecap:butt; stroke-opacity:100%; "
         y="455.835951"
         x="385.602233"
         height="85.523699"
         width="85.523699"
         transform="matrix(1 0 0 1 24.4364 -193.039)">
      </rect>
      <rect
         id="rect26"
         style="stroke:#000000; fill-opacity:0%; fill:#000000; stroke-width:2; stroke-linejoin:miter; stroke-linecap:butt; stroke-opacity:100%; "
         y="455.835951"
         x="385.602233"
         height="85.523699"
         width="85.523699"
         transform="matrix(1 0 0 1 109.96 -193.039)">
      </rect>

    </g>

  </g>
  <g
     id="g40"
     style="stroke:none; fill-opacity:50%; fill:#000000; "
     transform="matrix(1 0 0 1 -100.185 241.91)">    <g
       id="g41">      <rect
         id="rect42"
         style="stroke:#000000; fill-opacity:0%; fill:#000000; stroke-width:2; stroke-linejoin:miter; stroke-linecap:butt; stroke-opacity:100%; "
         y="455.835951"
         x="385.602233"
         height="85.523699"
         width="85.523699"
         transform="matrix(1 0 0 1 -232.135 -193.039)">
      </rect>
      <rect
         id="rect43"
         style="stroke:#000000; fill-opacity:0%; fill:#000000; stroke-width:2; stroke-linejoin:miter; stroke-linecap:butt; stroke-opacity:100%; "
         y="455.835951"
         x="385.602233"
         height="85.523699"
         width="85.523699"
         transform="matrix(1 0 0 1 -146.611 -193.039)">
      </rect>
      <rect
         id="rect44"
         style="stroke:#000000; fill-opacity:0%; fill:#000000; stroke-width:2; stroke-linejoin:miter; stroke-linecap:butt; stroke-opacity:100%; "
         y="455.835951"
         x="385.602233"
         height="85.523699"
         width="85.523699"
         transform="matrix(1 0 0 1 -61.0873 -193.039)">
      </rect>
      <rect
         id="rect45"
         style="stroke:#000000; fill-opacity:0%; fill:#000000; stroke-width:2; stroke-linejoin:miter; stroke-linecap:butt; stroke-opacity:100%; "
         y="455.835951"
         x="385.602233"
         height="85.523699"
         width="85.523699"
         transform="matrix(1 0 0 1 24.4364 -193.039)">
      </rect>
      <rect
         id="rect46"
         style="stroke:#000000; fill-opacity:0%; fill:#000000; stroke-width:2; stroke-linejoin:miter; stroke-linecap:butt; stroke-opacity:100%; "
         y="455.835951"
         x="385.602233"
         height="85.523699"
         width="85.523699"
         transform="matrix(1 0 0 1 109.96 -193.039)">
      </rect>

    </g>
    <g
       id="g47"
       style="stroke:none; fill-opacity:50%; fill:#000000; "
       transform="matrix(1 0 0 1 427.618 0)">      <rect
         id="rect48"
         style="stroke:#000000; fill-opacity:0%; fill:#000000; stroke-width:2; stroke-linejoin:miter; stroke-linecap:butt; stroke-opacity:100%; "
         y="455.835951"
         x="385.602233"
         height="85.523699"
         width="85.523699"
         transform="matrix(1 0 0 1 -232.135 -193.039)">
      </rect>
      <rect
         id="rect49"
         style="stroke:#000000; fill-opacity:0%; fill:#000000; stroke-width:2; stroke-linejoin:miter; stroke-linecap:butt; stroke-opacity:100%; "
         y="455.835951"
         x="385.602233"
         height="85.523699"
         width="85.523699"
         transform="matrix(1 0 0 1 -146.611 -193.039)">
      </rect>
      <rect
         id="rect50"
         style="stroke:#000000; fill-opacity:0%; fill:#000000; stroke-width:2; stroke-linejoin:miter; stroke-linecap:butt; stroke-opacity:100%; "
         y="455.835951"
         x="385.602233"
         height="85.523699"
         width="85.523699"
         transform="matrix(1 0 0 1 -61.0873 -193.039)">
      </rect>
      <rect
         id="rect51"
         style="stroke:#000000; fill-opacity:0%; fill:#000000; stroke-width:2; stroke-linejoin:miter; stroke-linecap:butt; stroke-opacity:100%; "
         y="455.835951"
         x="385.602233"
         height="85.523699"
         width="85.523699"
         transform="matrix(1 0 0 1 24.4364 -193.039)">
      </rect>
      <rect
         id="rect52"
         style="stroke:#000000; fill-opacity:0%; fill:#000000; stroke-width:2; stroke-linejoin:miter; stroke-linecap:butt; stroke-opacity:100%; "
         y="455.835951"
         x="385.602233"
         height="85.523699"
         width="85.523699"
         transform="matrix(1 0 0 1 109.96 -193.039)">
      </rect>

    </g>

  </g>
  <text
     id="text57"
     style="font-size:56.000000; font-family:Helvetica; font-style:normal; font-weight:normal; "
     y="226.143732"
     x="82.603986"
     transform="matrix(1 0 0 1 -2.44353 29.3224)">0</text>
  <text
     id="text58"
     style="font-size:56.000000; font-family:Helvetica; font-style:normal; font-weight:normal; "
     y="223.700198"
     x="175.458288"
     transform="matrix(1 0 0 1 -4.88707 31.7659)">1</text>
  <text
     id="text59"
     style="font-size:56.000000; font-family:Helvetica; font-style:normal; font-weight:normal; "
     y="226.143732"
     x="253.651384"
     transform="matrix(1 0 0 1 0 29.3224)">2</text>
  <text
     id="text60"
     style="font-size:56.000000; font-family:Helvetica; font-style:normal; font-weight:normal; "
     y="226.143732"
     x="339.175082"
     transform="matrix(1 0 0 1 0 26.8789)">3</text>
  <text
     id="text61"
     style="font-size:56.000000; font-family:Helvetica; font-style:normal; font-weight:normal; "
     y="231.030801"
     x="434.472918"
     transform="matrix(1 0 0 1 -9.77414 26.8788)">4</text>
  <text
     id="text62"
     style="font-size:56.000000; font-family:Helvetica; font-style:normal; font-weight:normal; "
     y="231.030801"
     x="500.448342"
     transform="matrix(1 0 0 1 14.6612 24.4354)">5</text>
  <text
     id="text63"
     style="font-size:56.000000; font-family:Helvetica; font-style:normal; font-weight:normal; "
     y="231.030801"
     x="590.859110"
     transform="matrix(1 0 0 1 0 29.3224)">6</text>
  <text
     id="text64"
     style="font-size:56.000000; font-family:Helvetica; font-style:normal; font-weight:normal; "
     y="231.030801"
     x="659.278068"
     transform="matrix(1 0 0 1 24.4353 29.3224)">7</text>
  <text
     id="text65"
     style="font-size:56.000000; font-family:Helvetica; font-style:normal; font-weight:normal; "
     y="231.030801"
     x="744.801767"
     transform="matrix(1 0 0 1 21.9918 26.8789)">8</text>
  <text
     id="text66"
     style="font-size:56.000000; font-family:Helvetica; font-style:normal; font-weight:normal; "
     y="238.361403"
     x="847.430205"
     transform="matrix(1 0 0 1 9.77414 21.9918)">9</text>
  <text
     id="text67"
     style="font-size:56.000000; font-family:Helvetica; font-style:normal; font-weight:normal; "
     y="450.948883"
     x="70.386315"
     transform="matrix(1 0 0 1 -9.77414 26.8789)">10</text>
  <text
     id="text68"
     style="font-size:56.000000; font-family:Helvetica; font-style:normal; font-weight:normal; "
     y="446.061814"
     x="168.127685"
     transform="matrix(1 0 0 1 -21.9918 34.2095)">11</text>
  <text
     id="text69"
     style="font-size:56.000000; font-family:Helvetica; font-style:normal; font-weight:normal; "
     y="450.948883"
     x="251.207849"
     transform="matrix(1 0 0 1 -19.5483 29.3224)">12</text>
  <text
     id="text70"
     style="font-size:56.000000; font-family:Helvetica; font-style:normal; font-weight:normal; "
     y="463.166554"
     x="339.175082"
     transform="matrix(1 0 0 1 -19.5483 17.1047)">13</text>
  <text
     id="text71"
     style="font-size:56.000000; font-family:Helvetica; font-style:normal; font-weight:normal; "
     y="465.610088"
     x="407.594041"
     transform="matrix(1 0 0 1 -2.44353 17.1047)">14</text>
  <text
     id="text72"
     style="font-size:56.000000; font-family:Helvetica; font-style:normal; font-weight:normal; "
     y="465.610088"
     x="510.222479"
     transform="matrix(1 0 0 1 -24.4353 17.1047)">15</text>
  <text
     id="text73"
     style="font-size:56.000000; font-family:Helvetica; font-style:normal; font-weight:normal; "
     y="472.940691"
     x="573.754370"
     transform="matrix(1 0 0 1 -4.88707 9.77413)">16</text>
  <text
     id="text74"
     style="font-size:56.000000; font-family:Helvetica; font-style:normal; font-weight:normal; "
     y="472.940691"
     x="676.382808"
     transform="matrix(1 0 0 1 -12.2177 7.33064)">17</text>
  <text
     id="text75"
     style="font-size:56.000000; font-family:Helvetica; font-style:normal; font-weight:normal; "
     y="472.940691"
     x="766.793575"
     transform="matrix(1 0 0 1 -24.4354 7.33063)">18</text>
  <text
     id="text76"
     style="font-size:56.000000; font-family:Helvetica; font-style:normal; font-weight:normal; "
     y="453.392417"
     x="849.873740"
     transform="matrix(1 0 0 1 -14.6612 26.8789)">19</text>

</svg>
